# xmcd
#
# Track frame offsets: 
#        150
#        11899
#        24507
#        36681
#        56166
#        70592
#        82236
#        94909
#        107611
#        119484
#        130782
#        139810
#        153494
#        162981
#        173529
#        184961
#        197731
#        210456
#        226331
#        242120
#        252320
#
# Disc length: 3576 seconds
#
# Revision: 0
# Processed by: cddbd v1.5.2PL0 Copyright (c) Steve Scherf et al.
# Submitted via: ExactAudioCopyFreeDBPlugin 1.0
#
DISCID=2f0df615
DTITLE=Various Artist - The Very Best Country and Bluegrass CD 2
DYEAR=2013
DGENRE=Country
TTITLE0=Johnny Cash  - Ring Of Fire  (1963)
TTITLE1=Lynn Anderson  - Rose Garden (Re-recording)
TTITLE2=Wanda Jackson  - You Win Again  (1966)
TTITLE3=Diana Krall  - Prairie Lullaby  (2012)
TTITLE4=Hayseed Dixie  - Dueling Banjos  (2005)
TTITLE5=Tennessee Ernie Ford  - Sixteen Tons  (1955)
TTITLE6=John Denver  - Thank God I'm A Country Boy  (1974)
TTITLE7=Charlie Rich  - The Most Beautiful Girl (Re-recording)
TTITLE8=Willie Nelson  - Funny How Time Slips Away  (1962)
TTITLE9=Crystal Gayle  - Don't It Make My Brown Eyes Blue  (Re-recordi
TTITLE9=ng)
TTITLE10=Frankie Laine  - Rawhide  (1958)
TTITLE11=The Kingston Trio  - Tom Dooley  (1959)
TTITLE12=Lorne Greene  - Bonanza  (1964)
TTITLE13=Leroy Van Dyke  - Walk On By  (1961)
TTITLE14=Glen Campbell and Bobbie Gentry  - All I Have To Do Is Dream  (
TTITLE14=1967)
TTITLE15=Jim Reeves  - Distant Drums  (1966)
TTITLE16=Brenda Lee  - Always On My Mind  (1973)
TTITLE17=Billie Jo Spears  - Blanket On The Ground  (1974)
TTITLE18=The Band  - The Night They Drove Old Dixie Down  (1969)
TTITLE19=The Stanley Brothers The Clinch Mountain Boys  - Angel Band  
TTITLE19=(1955)
TTITLE20=The Broken Circle Breakdown Bluegrass Band  - Country In My G
TTITLE20=enes  (2012)
EXTD=
EXTT0=
EXTT1=
EXTT2=
EXTT3=
EXTT4=
EXTT5=
EXTT6=
EXTT7=
EXTT8=
EXTT9=
EXTT10=
EXTT11=
EXTT12=
EXTT13=
EXTT14=
EXTT15=
EXTT16=
EXTT17=
EXTT18=
EXTT19=
EXTT20=
PLAYORDER=
